<svg width="52" height="40" viewBox="0 0 52 40" fill="none" xmlns="http://www.w3.org/2000/svg">
<circle cx="20" cy="20" r="20" fill="#00388C" fill-opacity="0.1"/>
<g clip-path="url(#clip0_24_4404)">
<g clip-path="url(#clip1_24_4404)">
<path d="M28.9999 27.7312C28.8175 25.8705 27.997 24.1277 26.6944 22.7256C26.6033 22.6208 26.4339 22.6732 26.4079 22.8174L26.3428 23.2367V23.2498V23.276C26.2646 23.5381 26.1213 23.6691 25.8999 23.6691C25.7566 23.6691 25.6785 23.8394 25.7696 23.9443C26.9028 25.2415 27.5281 26.8532 27.5281 28.5567C27.5281 28.8581 27.502 29.1725 27.4629 29.4608C27.4369 29.7098 27.2154 29.8932 26.968 29.8932H12.4449C12.1974 29.8932 11.976 29.7098 11.9499 29.4608C11.9108 29.1594 11.8848 28.845 11.8848 28.5567C11.8848 25.3201 14.1512 22.516 17.3554 21.5856C17.4986 21.5463 17.5247 21.3367 17.3814 21.2712C16.9776 21.0877 16.5999 20.865 16.2482 20.5898C16.131 20.4981 15.9877 20.4719 15.8575 20.5374C14.9457 20.9174 14.1251 21.4415 13.3827 22.0836C11.6764 23.5643 10.6083 25.5691 10.3999 27.7312V31.007C10.3999 31.2298 10.5692 31.4001 10.7907 31.4001H26.4991L28.6091 31.387C28.8306 31.387 28.9999 31.2167 28.9999 30.9939V27.7312Z" fill="#1D4EA5"/>
<path d="M13.8255 13.8939L13.8125 17.4711C13.8125 18.0739 14.3465 18.5587 15.0108 18.5587H16.5348L16.5869 18.6373C16.8734 18.9911 17.2121 19.3056 17.5898 19.5415C18.2541 19.9739 19.0226 20.2098 19.8041 20.2098C20.5986 20.2098 21.3671 19.9739 22.0314 19.5415C22.4091 19.2925 22.7348 18.9911 23.0213 18.6373L23.0864 18.5587H23.8419V20.5635C23.8419 20.8387 23.6205 21.0615 23.347 21.0615H22.1747C22.1747 20.9566 22.0965 20.878 21.9923 20.878H20.4033C20.3512 20.878 20.2991 20.9304 20.2991 20.9829V22.2015C20.2991 22.2539 20.3512 22.3063 20.4033 22.3063H21.9923C22.0965 22.3063 22.1747 22.2277 22.1747 22.1229H24.7797C24.8318 22.1229 24.8839 22.0835 24.8839 22.018V18.5456L25.0272 18.5063C25.5222 18.3622 25.8478 17.9429 25.8478 17.4711L25.8348 13.907V13.8939V13.8808C25.8478 13.7629 25.8478 13.658 25.8478 13.5663C25.8478 13.4746 25.8478 13.3698 25.8348 13.2387L25.8087 12.9766C25.444 10.487 22.878 8.6001 19.8301 8.6001C16.7822 8.6001 14.2163 10.487 13.8516 12.9766L13.8255 13.2256C13.8125 13.3698 13.8125 13.4615 13.8125 13.5532C13.8125 13.6711 13.8125 13.776 13.8255 13.8939ZM22.5785 17.0256C22.1226 18.2311 21.0285 19.0173 19.8171 19.0173C18.6449 19.0173 17.5768 18.2704 17.0949 17.1304C16.9255 16.7242 16.8343 16.2918 16.8343 15.8332C16.8343 15.3877 16.9255 14.9422 17.0949 14.536C17.5768 13.3829 18.6449 12.6491 19.8171 12.6491C21.0415 12.6491 22.1226 13.4353 22.5785 14.6408C22.7217 15.0208 22.7999 15.427 22.7999 15.8463C22.7999 16.2394 22.7217 16.6456 22.5785 17.0256ZM19.8301 9.56975C22.5524 9.56975 24.7537 11.3649 24.7537 13.5663C24.7537 13.6449 24.7537 13.7104 24.7537 13.776C24.7537 13.8808 24.6625 13.9463 24.5713 13.9463H23.7507L23.6986 13.8284C23.0213 12.1904 21.4974 11.1422 19.8171 11.1422C18.1369 11.1422 16.6129 12.2035 15.9356 13.8284L15.8835 13.9463H15.102C14.9978 13.9463 14.9196 13.8677 14.9196 13.776C14.9196 13.7104 14.9066 13.6449 14.9066 13.5663C14.9066 11.3649 17.1079 9.56975 19.8301 9.56975Z" fill="#1D4EA5"/>
</g>
</g>
<defs>
<clipPath id="clip0_24_4404">
<rect width="24" height="24" fill="white" transform="translate(8 8)"/>
</clipPath>
<clipPath id="clip1_24_4404">
<rect width="18.6" height="22.8" fill="white" transform="translate(10.3999 8.6001)"/>
</clipPath>
</defs>
</svg>
