<svg width="52" height="40" viewBox="0 0 52 40" fill="none" xmlns="http://www.w3.org/2000/svg">
<circle cx="20" cy="20" r="20" fill="#00388C" fill-opacity="0.1"/>
<g clip-path="url(#clip0_24_4388)">
<g clip-path="url(#clip1_24_4388)">
<path d="M8.6001 12.5776V27.9461C8.6001 28.1601 8.76385 28.3237 8.978 28.3237H31.0222C31.2363 28.3237 31.4001 28.1601 31.4001 27.9461V12.5776C31.4001 12.3636 31.2363 12.2 31.0222 12.2H8.978C8.76385 12.2 8.6001 12.3636 8.6001 12.5776ZM19.8111 19.6262L11.976 14.1509C11.6737 13.9369 11.8248 13.4586 12.1902 13.4586H28.1753C28.5532 13.4586 28.6918 13.9369 28.3895 14.1509L20.2394 19.6262C20.1135 19.7143 19.9371 19.7143 19.8111 19.6262ZM9.85977 26.6874V14.9187C9.85977 14.6166 10.1999 14.4404 10.4518 14.604L19.786 21.1492C19.9119 21.2373 20.0883 21.2373 20.2142 21.1492L29.5484 14.881C29.8003 14.7173 30.1404 14.8935 30.1404 15.1956V26.6874C30.1404 26.9014 29.9767 27.065 29.7625 27.065H10.2377C10.0235 27.065 9.85977 26.9014 9.85977 26.6874Z" fill="#1D4EA5"/>
</g>
</g>
<defs>
<clipPath id="clip0_24_4388">
<rect width="24" height="24" fill="white" transform="translate(8 8)"/>
</clipPath>
<clipPath id="clip1_24_4388">
<rect width="22.8" height="16.1238" fill="white" transform="translate(8.6001 12.2)"/>
</clipPath>
</defs>
</svg>
