<svg width="49" height="42" viewBox="0 0 49 42" fill="none" xmlns="http://www.w3.org/2000/svg">
<circle cx="3" cy="3" r="3" transform="matrix(1 0 0 -1 0.5 6)" fill="white"/>
<circle cx="3" cy="3" r="3" transform="matrix(1 0 0 -1 28.5 6)" fill="white"/>
<circle cx="3" cy="3" r="3" transform="matrix(1 0 0 -1 14.5 6)" fill="white"/>
<circle cx="3" cy="3" r="3" transform="matrix(1 0 0 -1 42.5 6)" fill="white"/>
<circle cx="3" cy="3" r="3" transform="matrix(1 0 0 -1 0.5 18)" fill="white"/>
<circle cx="3" cy="3" r="3" transform="matrix(1 0 0 -1 28.5 18)" fill="white"/>
<circle cx="3" cy="3" r="3" transform="matrix(1 0 0 -1 14.5 18)" fill="white"/>
<circle cx="3" cy="3" r="3" transform="matrix(1 0 0 -1 42.5 18)" fill="white"/>
<circle cx="3" cy="3" r="3" transform="matrix(1 0 0 -1 0.5 30)" fill="white"/>
<circle cx="3" cy="3" r="3" transform="matrix(1 0 0 -1 28.5 30)" fill="white"/>
<circle cx="3" cy="3" r="3" transform="matrix(1 0 0 -1 14.5 30)" fill="white"/>
<circle cx="3" cy="3" r="3" transform="matrix(1 0 0 -1 42.5 30)" fill="white"/>
<circle cx="3" cy="3" r="3" transform="matrix(1 0 0 -1 0.5 42)" fill="white"/>
<circle cx="3" cy="3" r="3" transform="matrix(1 0 0 -1 28.5 42)" fill="white"/>
<circle cx="3" cy="3" r="3" transform="matrix(1 0 0 -1 14.5 42)" fill="white"/>
<circle cx="3" cy="3" r="3" transform="matrix(1 0 0 -1 42.5 42)" fill="white"/>
</svg>
