<svg width="200" height="250" viewBox="0 0 200 250" fill="none" xmlns="http://www.w3.org/2000/svg">
<g clip-path="url(#clip0_58_153)">
<path d="M157.804 0H14.2499C6.37988 0 0 6.38158 0 14.2537V224.761C0 232.633 6.37988 239.015 14.2499 239.015H157.804C165.674 239.015 172.054 232.633 172.054 224.761V14.2537C172.054 6.38158 165.674 0 157.804 0Z" fill="url(#paint0_linear_58_153)"/>
<path opacity="0.8" d="M151.02 12.6699H21.034C15.8299 12.6699 11.6111 16.8898 11.6111 22.0954V216.919C11.6111 222.125 15.8299 226.345 21.034 226.345H151.02C156.224 226.345 160.443 222.125 160.443 216.919V22.0954C160.443 16.8898 156.224 12.6699 151.02 12.6699Z" fill="url(#paint1_linear_58_153)"/>
<path d="M137.162 87.749H34.8934C32.4887 87.749 30.5393 89.699 30.5393 92.1043C30.5393 94.5097 32.4887 96.4596 34.8934 96.4596H137.162C139.567 96.4596 141.516 94.5097 141.516 92.1043C141.516 89.699 139.567 87.749 137.162 87.749Z" fill="#E8EFF7"/>
<path d="M137.162 60.8254H34.8934C32.4887 60.8254 30.5393 62.7754 30.5393 65.1807C30.5393 67.5861 32.4887 69.536 34.8934 69.536H137.162C139.567 69.536 141.516 67.5861 141.516 65.1807C141.516 62.7754 139.567 60.8254 137.162 60.8254Z" fill="#E8EFF7"/>
<path d="M137.162 34.8606H34.8934C32.4887 34.8606 30.5393 36.8105 30.5393 39.2159C30.5393 41.6212 32.4887 43.5712 34.8934 43.5712H137.162C139.567 43.5712 141.516 41.6212 141.516 39.2159C141.516 36.8105 139.567 34.8606 137.162 34.8606Z" fill="#E8EFF7"/>
<path d="M137.162 114.673H34.8934C32.4887 114.673 30.5393 116.623 30.5393 119.028C30.5393 121.433 32.4887 123.383 34.8934 123.383H137.162C139.567 123.383 141.516 121.433 141.516 119.028C141.516 116.623 139.567 114.673 137.162 114.673Z" fill="#E8EFF7"/>
<path d="M137.162 141.596H34.8934C32.4887 141.596 30.5393 143.546 30.5393 145.951C30.5393 148.357 32.4887 150.307 34.8934 150.307H137.162C139.567 150.307 141.516 148.357 141.516 145.951C141.516 143.546 139.567 141.596 137.162 141.596Z" fill="#E8EFF7"/>
<path d="M137.162 168.52H34.8934C32.4887 168.52 30.5393 170.47 30.5393 172.875C30.5393 175.28 32.4887 177.23 34.8934 177.23H137.162C139.567 177.23 141.516 175.28 141.516 172.875C141.516 170.47 139.567 168.52 137.162 168.52Z" fill="#E8EFF7"/>
<path d="M137.162 195.443H34.8934C32.4887 195.443 30.5393 197.393 30.5393 199.799C30.5393 202.204 32.4887 204.154 34.8934 204.154H137.162C139.567 204.154 141.516 202.204 141.516 199.799C141.516 197.393 139.567 195.443 137.162 195.443Z" fill="#E8EFF7"/>
<path opacity="0.21" d="M151.432 200.826C166.765 185.489 166.765 160.623 151.432 145.286C136.099 129.949 111.239 129.949 95.9066 145.286C80.5738 160.623 80.5738 185.489 95.9066 200.826C111.239 216.163 136.099 216.163 151.432 200.826Z" fill="white"/>
<path opacity="0.76" d="M92.9007 175.878C91.53 175.878 90.4194 174.767 90.4194 173.396C90.4194 153.584 106.533 137.467 126.339 137.467C127.71 137.467 128.82 138.577 128.82 139.948C128.82 141.32 127.71 142.43 126.339 142.43C109.269 142.43 95.382 156.321 95.382 173.396C95.382 174.767 94.2714 175.878 92.9007 175.878Z" fill="white"/>
<path opacity="0.58" d="M123.669 213.568C101.336 213.568 83.1663 195.394 83.1663 173.055C83.1663 150.716 101.336 132.541 123.669 132.541C146.002 132.541 164.172 150.716 164.172 173.055C164.172 195.394 146.002 213.568 123.669 213.568ZM123.669 135.023C102.703 135.023 85.6475 152.085 85.6475 173.055C85.6475 194.025 102.703 211.086 123.669 211.086C144.635 211.086 161.691 194.025 161.691 173.055C161.691 152.085 144.635 135.023 123.669 135.023Z" fill="#3F499C"/>
<path d="M159.755 201.194C159.814 201.135 159.878 201.089 159.942 201.042C165.922 193.299 169.486 183.595 169.486 173.055C169.486 147.744 148.973 127.225 123.669 127.225C98.3653 127.225 77.8518 147.744 77.8518 173.055C77.8518 198.365 98.3653 218.884 123.669 218.884C134.162 218.884 143.821 215.343 151.546 209.406L156.845 204.105L159.755 201.194ZM123.667 212.328C101.983 212.328 84.405 194.745 84.405 173.055C84.405 151.365 101.983 133.782 123.667 133.782C145.352 133.782 162.929 151.365 162.929 173.055C162.929 194.745 145.352 212.328 123.667 212.328Z" fill="url(#paint2_linear_58_153)"/>
<path d="M123.669 219.506C98.0629 219.506 77.2324 198.668 77.2324 173.057C77.2324 147.446 98.0629 126.608 123.669 126.608C149.275 126.608 170.106 147.446 170.106 173.057C170.106 183.421 166.761 193.229 160.434 201.423L160.318 201.538C160.258 201.584 160.225 201.606 160.197 201.634L151.925 209.901C143.748 216.186 133.977 219.508 123.669 219.508V219.506ZM123.669 127.847C98.7483 127.847 78.4731 148.127 78.4731 173.055C78.4731 197.982 98.7483 218.263 123.669 218.263C133.688 218.263 143.184 215.039 151.137 208.938L159.319 200.754C159.378 200.695 159.44 200.644 159.503 200.596C165.629 192.635 168.865 183.113 168.865 173.055C168.865 148.127 148.59 127.847 123.669 127.847ZM123.669 212.949C101.677 212.949 83.7874 195.053 83.7874 173.057C83.7874 151.06 101.679 133.164 123.669 133.164C145.66 133.164 163.551 151.06 163.551 173.057C163.551 195.053 145.66 212.949 123.669 212.949ZM123.669 134.404C102.362 134.404 85.0281 151.742 85.0281 173.055C85.0281 194.368 102.362 211.706 123.669 211.706C144.976 211.706 162.31 194.368 162.31 173.055C162.31 151.742 144.976 134.404 123.669 134.404Z" fill="url(#paint3_linear_58_153)"/>
<path d="M158.623 208.361L156.846 206.583C156.162 205.899 156.162 204.79 156.846 204.104L151.546 209.406L151.46 209.492C150.776 210.175 150.776 211.284 151.46 211.97L153.617 214.128C154.328 212.934 156.409 210.601 158.623 208.359V208.361Z" fill="url(#paint4_linear_58_153)"/>
<path d="M156.845 204.105C156.162 204.788 156.162 205.897 156.845 206.583L158.623 208.361C160.767 206.192 163.028 204.121 164.298 203.261L162.233 201.196C161.606 200.569 160.628 200.523 159.942 201.043C159.878 201.091 159.814 201.137 159.755 201.196L156.845 204.106V204.105Z" fill="#4F66AF"/>
<path d="M156.845 204.105C156.162 204.788 156.162 205.897 156.845 206.583L158.623 208.361C160.767 206.192 163.028 204.121 164.298 203.261L162.233 201.196C161.606 200.569 160.628 200.523 159.942 201.043C159.878 201.091 159.814 201.137 159.755 201.196L156.845 204.106V204.105Z" fill="url(#paint5_linear_58_153)"/>
<path d="M197.539 235.501L165.275 202.877C165.16 202.759 164.806 202.915 164.298 203.26C163.028 204.119 160.767 206.191 158.623 208.359C156.408 210.599 154.328 212.934 153.617 214.128C153.386 214.516 153.296 214.786 153.397 214.888L185.66 247.513C188.941 250.829 194.259 250.829 197.539 247.513C200.819 244.197 200.819 238.819 197.539 235.501Z" fill="url(#paint6_linear_58_153)"/>
<path opacity="0.14" d="M197.539 235.501L165.275 202.876C164.841 202.436 161.165 205.732 158.007 208.988C155.321 211.757 194.259 250.828 197.539 247.513C200.819 244.197 200.819 238.818 197.539 235.501Z" fill="#3F499C"/>
</g>
<defs>
<linearGradient id="paint0_linear_58_153" x1="-31.364" y1="300.205" x2="163.345" y2="0.652504" gradientUnits="userSpaceOnUse">
<stop stop-color="#97B7D9"/>
<stop offset="0.99" stop-color="#E6E0CC"/>
</linearGradient>
<linearGradient id="paint1_linear_58_153" x1="-88.5337" y1="379.06" x2="23.4484" y2="212.643" gradientUnits="userSpaceOnUse">
<stop stop-color="#97B7D9"/>
<stop offset="0.99" stop-color="#E6E0CC"/>
</linearGradient>
<linearGradient id="paint2_linear_58_153" x1="-122.782" y1="275.188" x2="116.583" y2="176.04" gradientUnits="userSpaceOnUse">
<stop stop-color="#0B529C"/>
<stop offset="0.51" stop-color="#057EA7" stop-opacity="0.78"/>
<stop offset="1" stop-color="#01A3B0" stop-opacity="0.6"/>
</linearGradient>
<linearGradient id="paint3_linear_58_153" x1="-122.779" y1="275.199" x2="116.587" y2="176.051" gradientUnits="userSpaceOnUse">
<stop stop-color="#0B529C"/>
<stop offset="1" stop-color="#01A3B0" stop-opacity="0.6"/>
</linearGradient>
<linearGradient id="paint4_linear_58_153" x1="151.203" y1="212.789" x2="175.208" y2="190.909" gradientUnits="userSpaceOnUse">
<stop stop-color="#0B529C"/>
<stop offset="1" stop-color="#01A3B0" stop-opacity="0.6"/>
</linearGradient>
<linearGradient id="paint5_linear_58_153" x1="165.55" y1="199.999" x2="163.869" y2="201.259" gradientUnits="userSpaceOnUse">
<stop stop-color="#0B529C"/>
<stop offset="1" stop-color="#01A3B0" stop-opacity="0.6"/>
</linearGradient>
<linearGradient id="paint6_linear_58_153" x1="153.355" y1="226.42" x2="200" y2="226.42" gradientUnits="userSpaceOnUse">
<stop stop-color="#0B529C"/>
<stop offset="1" stop-color="#01A3B0" stop-opacity="0.6"/>
</linearGradient>
<clipPath id="clip0_58_153">
<rect width="200" height="250" fill="white"/>
</clipPath>
</defs>
</svg>
