<svg width="24" height="24" viewBox="0 0 24 24" fill="none" xmlns="http://www.w3.org/2000/svg">
<path d="M17.5318 4.59799C17.1135 4.59799 16.7705 4.25879 16.7705 3.83668V0.761306C16.7705 0.342965 17.1097 0 17.5318 0C17.9539 0 18.2931 0.339196 18.2931 0.761306V3.84045C18.2931 4.25879 17.9539 4.60176 17.5318 4.60176V4.59799Z" fill="#1E54B0"/>
<path d="M6.88826 4.59799C6.46992 4.59799 6.12695 4.25879 6.12695 3.83668V0.761306C6.12695 0.342965 6.46615 0 6.88826 0C7.31037 0 7.64957 0.339196 7.64957 0.761306V3.84045C7.64957 4.25879 7.31037 4.60176 6.88826 4.60176V4.59799Z" fill="#1E54B0"/>
<path d="M12.1612 4.59799C11.7429 4.59799 11.3999 4.25879 11.3999 3.83668V0.761306C11.3999 0.342965 11.7391 0 12.1612 0C12.5833 0 12.9225 0.339196 12.9225 0.761306V3.84045C12.9225 4.25879 12.5833 4.60176 12.1612 4.60176V4.59799Z" fill="#1E54B0"/>
<path d="M17.7921 14.3405H6.99812C6.57978 14.3405 6.23682 14.0013 6.23682 13.5792C6.23682 13.1571 6.57601 12.8179 6.99812 12.8179H17.7921C18.2104 12.8179 18.5534 13.1571 18.5534 13.5792C18.5534 14.0013 18.2142 14.3405 17.7921 14.3405Z" fill="#1E54B0"/>
<path d="M17.6603 9.11295H6.86629C6.44795 9.11295 6.10498 8.77375 6.10498 8.35164C6.10498 7.92953 6.44418 7.59033 6.86629 7.59033H17.6603C18.0786 7.59033 18.4216 7.92953 18.4216 8.35164C18.4216 8.77375 18.0824 9.11295 17.6603 9.11295Z" fill="#1E54B0"/>
<path d="M17.6603 19.4699H6.86629C6.44795 19.4699 6.10498 19.1307 6.10498 18.7086C6.10498 18.2865 6.44418 17.9473 6.86629 17.9473H17.6603C18.0786 17.9473 18.4216 18.2865 18.4216 18.7086C18.4216 19.1307 18.0824 19.4699 17.6603 19.4699Z" fill="#1E54B0"/>
<path d="M19.4502 23.9999H4.82704C3.4891 23.9999 2.3999 22.9107 2.3999 21.5728V3.93837C2.3999 2.60043 3.4891 1.51123 4.82704 1.51123H19.4502C20.7881 1.51123 21.8773 2.60043 21.8773 3.93837V21.5728C21.8773 22.9107 20.7881 23.9999 19.4502 23.9999ZM4.82704 3.03384C4.32578 3.03384 3.92252 3.44088 3.92252 3.93837V21.5728C3.92252 22.074 4.32955 22.4773 4.82704 22.4773H19.4502C19.9514 22.4773 20.3547 22.0703 20.3547 21.5728V3.93837C20.3547 3.43711 19.9476 3.03384 19.4502 3.03384H4.82704Z" fill="#1E54B0"/>
</svg>
